ffmpeg started on 2023-07-07 at 00:08:44
Report written to "data/logs/transcoder.log"
Log level: 32
Command line:
/usr/bin/ffmpeg -hide_banner -loglevel warning -fflags +genpts -flags +cgop -i ./data/tmp/offline.ts2316503470 -map v:0 -c:v:0 libx264 -b:v:0 1008k -maxrate:v:0 1088k -g:v:0 120 -keyint_min:v:0 120 -r:v:0 24 -x264-params:v:0 "scenecut=0:open_gop=0" -bufsize:v:0 1088k -profile:v:0 high -map "a:0?" -c:a:0 copy -preset veryfast -var_stream_map "v:0,a:0 " -f hls -hls_time 5 -hls_list_size 5 -hls_flags program_date_time+independent_segments -hls_playlist_type event -segment_format_options "mpegts_flags=mpegts_copyts=1" -tune zerolatency -pix_fmt yuv420p -sc_threshold 0 -master_pl_name stream.m3u8 -hls_segment_filename "http://127.0.0.1:35301/%v/stream-offline-%d.ts" -max_muxing_queue_size 400 -method PUT "http://127.0.0.1:35301/%v/stream.m3u8"
Input #0, mpegts, from './data/tmp/offline.ts2316503470':
  Duration: 00:00:08.09, start: 1.439333, bitrate: 1135 kb/s
  Program 1 
    Metadata:
      service_name    : Owncast Offline
      service_provider: FFmpeg
  Stream #0:0[0x100]: Video: h264 (High) ([27][0][0][0] / 0x001B), yuv420p(progressive), 854x480 [SAR 1:1 DAR 427:240], 24 fps, 24 tbr, 90k tbn, 48 tbc
  Stream #0:1[0x101](eng): Audio: aac (LC) ([15][0][0][0] / 0x000F), 48000 Hz, stereo, fltp, 113 kb/s
Stream mapping:
  Stream #0:0 -> #0:0 (h264 (native) -> h264 (libx264))
  Stream #0:1 -> #0:1 (copy)
Press [q] to stop, [?] for help
[libx264 @ 0x7fb7ef97eb00] using SAR=1/1
[libx264 @ 0x7fb7ef97eb00] using cpu capabilities: MMX2 SSE2Fast SSSE3 SSE4.2 AVX FMA3 BMI2 AVX2 AVX512
[libx264 @ 0x7fb7ef97eb00] profile High, level 3.0, 4:2:0, 8-bit
[libx264 @ 0x7fb7ef97eb00] 264 - core 163 - H.264/MPEG-4 AVC codec - Copyleft 2003-2021 - http://www.videolan.org/x264.html - options: cabac=1 ref=1 deblock=1:0:0 analyse=0x3:0x113 me=hex subme=2 psy=1 psy_rd=1.00:0.00 mixed_ref=0 me_range=16 chroma_me=1 trellis=0 8x8dct=1 cqm=0 deadzone=21,11 fast_pskip=1 chroma_qp_offset=0 threads=7 lookahead_threads=7 sliced_threads=1 slices=7 nr=0 decimate=1 interlaced=0 bluray_compat=0 constrained_intra=0 bframes=0 weightp=1 keyint=120 keyint_min=61 scenecut=0 intra_refresh=0 rc_lookahead=0 rc=abr mbtree=0 bitrate=1008 ratetol=1.0 qcomp=0.60 qpmin=0 qpmax=69 qpstep=4 vbv_maxrate=1088 vbv_bufsize=1088 nal_hrd=none filler=0 ip_ratio=1.40 aq=1:1.00
Output #0, hls, to 'http://127.0.0.1:35301/%v/stream.m3u8':
  Metadata:
    encoder         : Lavf58.76.100
  Stream #0:0: Video: h264, yuv420p(progressive), 854x480 [SAR 1:1 DAR 427:240], q=2-31, 1008 kb/s, 24 fps, 90k tbn
    Metadata:
      encoder         : Lavc58.134.100 libx264
    Side data:
      cpb: bitrate max/min/avg: 1088000/0/1008000 buffer size: 1088000 vbv_delay: N/A
  Stream #0:1(eng): Audio: aac (LC) ([15][0][0][0] / 0x000F), 48000 Hz, stereo, fltp, 113 kb/s
frame=    2 fps=0.0 q=22.0 size=N/A time=00:00:00.34 bitrate=N/A dup=1 drop=0 speed=47.2x    [hls @ 0x7fb7ef986040] Opening 'http://127.0.0.1:35301/0/stream-offline-0.ts' for writing
[hls @ 0x7fb7ef986040] Opening 'http://127.0.0.1:35301/0/stream.m3u8' for writing
[hls @ 0x7fb7ef986040] Opening 'http://127.0.0.1:35301/stream.m3u8' for writing
[hls @ 0x7fb7ef986040] Opening 'http://127.0.0.1:35301/0/stream-offline-1.ts' for writing
[hls @ 0x7fb7ef986040] Opening 'http://127.0.0.1:35301/0/stream.m3u8' for writing
frame=  194 fps=0.0 q=0.0 Lsize=N/A time=00:00:08.08 bitrate=N/A dup=1 drop=0 speed=  20x    
video:706kB audio:113kB subtitle:0kB other streams:0kB global headers:0kB muxing overhead: unknown
[libx264 @ 0x7fb7ef97eb00] frame I:2     Avg QP: 5.26  size: 12348
[libx264 @ 0x7fb7ef97eb00] frame P:192   Avg QP: 3.75  size:  3632
[libx264 @ 0x7fb7ef97eb00] mb I  I16..4: 85.1%  1.7% 13.2%
[libx264 @ 0x7fb7ef97eb00] mb P  I16..4: 10.5%  0.2%  0.2%  P16..4: 10.2%  2.8%  2.1%  0.0%  0.0%    skip:74.0%
[libx264 @ 0x7fb7ef97eb00] 8x8 transform intra:1.7% inter:4.0%
[libx264 @ 0x7fb7ef97eb00] coded y,uvDC,uvAC intra: 7.0% 10.5% 9.2% inter: 6.0% 5.9% 3.8%
[libx264 @ 0x7fb7ef97eb00] i16 v,h,dc,p: 92%  2%  5%  1%
[libx264 @ 0x7fb7ef97eb00] i8 v,h,dc,ddl,ddr,vr,hd,vl,hu: 28% 21% 30%  3%  4%  6%  2%  1%  3%
[libx264 @ 0x7fb7ef97eb00] i4 v,h,dc,ddl,ddr,vr,hd,vl,hu: 27% 22% 29%  4%  6%  5%  3%  2%  3%
[libx264 @ 0x7fb7ef97eb00] i8c dc,h,v,p: 92%  3%  3%  2%
[libx264 @ 0x7fb7ef97eb00] Weighted P-Frames: Y:3.6% UV:0.5%
[libx264 @ 0x7fb7ef97eb00] kb/s:714.53
